<svg width="284" height="284" viewBox="0 0 284 284" fill="none" xmlns="http://www.w3.org/2000/svg">
<rect x="50" y="50" width="185" height="185" fill="white"/>
<rect x="0.578613" y="142" width="200" height="200" transform="rotate(-45 0.578613 142)" fill="white"/>
<rect x="0.578613" y="142" width="200" height="200" transform="rotate(-45 0.578613 142)" stroke="white"/>
<rect x="11" y="141.815" width="185" height="185" transform="rotate(-45 11 141.815)" fill="#080412"/>
<rect x="11" y="141.815" width="185" height="185" transform="rotate(-45 11 141.815)" stroke="white"/>
<path d="M138.816 122.71C141.136 125.976 143.662 129.355 146.679 131.121C151.395 133.882 153.157 129.985 156.27 125.531" stroke="white"/>
<path d="M139.133 105.785C139.613 105.785 138.409 106.215 138.304 106.229C137.471 106.336 135.166 105.072 137.052 104.217C137.615 103.963 142.194 104.385 140.72 105.889C139.634 106.997 137.905 107.253 136.629 107.091C135.299 106.921 135.985 106.322 136.277 105.314" stroke="white"/>
<path d="M155.635 106.255C153.29 107.324 153.608 105.242 155.829 104.661C156.695 104.435 158.504 103.92 159.056 105.419C159.339 106.188 159.05 107.127 158.509 107.43C157.265 108.128 156.614 106.395 155.635 105.785" stroke="white"/>
<path d="M121.044 141.517C118.421 144.668 115.612 148.995 114.274 153.637C112.492 159.815 115.813 159.974 118.505 161.734" stroke="white"/>
<path d="M170.551 139.166C174.653 140.034 179.334 142.765 182.399 146.924C186.615 152.644 179.832 156.35 176.898 158.443" stroke="white"/>
<path d="M130.564 174.428C141.99 172.697 153.407 170.899 164.839 169.256" stroke="white"/>
<path d="M125.804 174.898C128.687 177.339 128.672 183.84 128.978 188.063" stroke="white"/>
<path d="M127.708 187.593C138.08 187.367 148.448 186.436 158.809 185.712" stroke="white"/>
<path d="M165.473 180.54H165.156" stroke="white"/>
<path d="M162.617 175.368C164.404 175.81 166.394 179.204 167.307 181.298C168.612 184.292 159.205 183.777 157.857 183.831" stroke="white"/>
<path d="M120.726 107.665C117.939 111.232 126.62 128.082 129.559 125.662C131.927 123.714 128.312 115.832 127.514 114.326C126.381 112.187 125.162 110.467 123.53 109.232C121.434 107.647 122.273 109.235 121.044 110.016" stroke="white"/>
<path d="M163.886 110.016C163.878 110.007 163.448 109.429 163.322 109.703C162.835 110.766 164.011 113.766 164.239 114.378C164.824 115.947 167.973 123.568 169.846 120.83C171.701 118.117 169.991 112.521 168.241 110.747C165.897 108.371 167.176 113.645 167.377 114.718" stroke="white"/>
<path d="M120.726 106.725C120.642 110.619 118.539 104.013 118.329 102.964C117.228 97.4856 119.146 93.3067 121.908 89.7992C129.802 79.7748 140.567 79.0158 150.505 80.187C155.803 80.8114 164.132 82.7437 166.355 91.2097C167.122 94.1314 167.25 97.309 168.206 100.143C169.153 102.949 169.925 106.382 171.503 108.135" stroke="white"/>
<path d="M123.265 110.016C121.845 109.782 120.423 106.544 119.669 105.053C118.75 103.238 120.84 100.475 121.678 99.5681C123.523 97.5735 125.749 96.8025 127.602 94.8665C130.504 91.8357 133.694 89.9147 137.176 89.0678C145.917 86.9417 155.01 81.9376 163.551 87.8924C166.249 89.7727 168.178 93.4304 168.788 97.818C169.162 100.509 168.256 107.611 170.234 109.076" stroke="white"/>
<path d="M130.247 114.248C129.082 114.463 128.677 123.602 127.849 116.651C127.502 113.736 126.778 108.295 127.99 105.576C130.085 100.879 135.097 99.3816 138.481 98.2359C141.979 97.0513 145.481 95.6153 148.795 93.5604C151.198 92.0699 153.12 91.1599 155.741 91.2096C157.625 91.2454 159.748 93.0179 160.96 95.1799C162.386 97.7259 162.194 101.476 162.934 104.453C163.811 107.977 163.984 111.813 164.715 115.397C165.695 120.199 168.019 126.217 165.844 131.095C161.371 141.123 150.715 144.148 143.259 144.703C140.185 144.933 135.144 146.116 132.539 142.927C131.236 141.333 132.134 138.254 131.657 136.136C130.492 130.955 128.336 126.408 127.708 120.83" stroke="white"/>
<path d="M123.9 147.159C124.526 146.232 122.971 149.629 123.124 150.92C123.8 156.626 127.199 157.288 129.93 159.853" stroke="white"/>
<path d="M161.982 143.397C164.468 143.397 166.908 144.532 168.964 146.636C172.828 150.591 170.849 154.088 167.695 156.562" stroke="white"/>
<path d="M108.667 170.197C104.73 171.863 105.004 181.785 107.151 185.503C108.867 188.474 111.007 190.095 112.599 186.339C115.557 179.36 112.219 169.07 106.446 173.958" stroke="white"/>
<path d="M108.667 179.6C109.783 181.767 110.848 183.894 111.841 186.182" stroke="white"/>
<path d="M136.911 174.898C136.272 175.135 136.834 176.838 136.982 177.354C137.729 179.967 138.454 179.583 140.367 179.391C146.454 178.78 152.312 177.392 158.28 175.734C160.019 175.251 159.44 173.34 158.033 172.547C156.959 171.943 156.675 171.77 155.53 172.286C150.114 174.728 144.737 175.117 139.133 175.839" stroke="white"/>
<path d="M118.822 163.144C118.446 163.144 117.318 163.144 117.694 163.144C119.224 163.144 121.501 162.315 121.802 165.26C121.998 167.174 120.902 167.73 121.573 167.376C124.04 166.07 123.594 169.535 124.764 171.268C126.081 173.218 129.893 170.949 130 168.238C130.004 168.145 132.37 167.743 133.456 166.801C133.754 166.542 135.294 165.111 134.549 164.293C134.072 163.77 133.776 164.36 134.531 164.006C135.539 163.535 134.571 162.525 134.038 162.308C132.513 161.688 131.086 162.17 129.612 162.674" stroke="white"/>
<path d="M167.06 157.032C165.623 157.36 162.947 159.699 163.146 162.256C163.237 163.421 164.378 162.779 164.768 162.57C166.174 161.816 166.331 163.518 167.695 164.294C169.458 165.296 170.894 164.367 172.12 162.465C172.527 161.834 172.161 163.359 172.279 163.954C172.922 167.211 175.582 166.487 177.215 165.626C178.489 164.954 179.782 163.926 180.794 162.57C182.244 160.626 181.113 161.1 181.024 159.383" stroke="white"/>
<path d="M136.594 148.099C135.566 148.099 137.891 150.472 138.445 151.756C140.863 157.357 141.574 162.902 142.306 169.256" stroke="white"/>
<path d="M148.971 148.099C150.285 150.911 151.893 153.51 153.467 155.987C155.967 159.925 158.627 162.567 161.348 165.965" stroke="white"/>
<path d="M134.373 144.338C133.022 142.211 129.774 143.434 128.167 143.763C124.466 144.521 121.065 145.894 117.553 147.629" stroke="white"/>
<path d="M160.713 139.166C163.356 138.795 166 138.52 168.647 138.226" stroke="white"/>
<path d="M75.6622 141.517C75.871 141.568 76.8478 142.224 76.9669 142.039C77.9146 140.568 72.4839 129.32 71.9068 127.934C71.3834 126.678 69.7637 124.572 70.6551 123.912C72.0483 122.88 73.6752 125.097 75.1156 125.975C80.3429 129.162 85.3357 132.783 90.2605 136.815" stroke="white"/>
<path d="M76.2969 136.815C77.6911 135.764 79.0521 134.641 80.4225 133.524" stroke="white"/>
<path d="M87.4043 130.703C87.162 130.389 88.1805 130.989 87.1574 128.457C86.8372 127.664 84.0248 122.833 85.2181 121.927C86.7742 120.745 89.39 122.66 90.8952 123.181" stroke="white"/>
<path d="M94.7034 116.128C93.9668 115.289 91.4179 114.674 91.2125 116.703C90.9977 118.825 93.4215 119.478 92.4819 115.397C92.0642 113.582 91.3167 111.826 90.5778 110.277C90.0481 109.167 88.1712 106.658 89.0792 106.856C91.6821 107.423 94.5401 110.291 96.9249 111.897" stroke="white"/>
<path d="M94.7034 106.255C96.755 106.745 98.7817 107.255 100.786 108.083C101.207 108.257 101.624 108.449 102.038 108.658C102.206 108.743 101.679 108.631 101.509 108.553C99.7287 107.743 97.8567 106.823 96.3431 105.158C94.6958 103.346 95.9728 103.997 95.9728 102.494" stroke="white"/>
<path d="M101.05 102.494C102.545 100.583 102.653 100.518 103.942 98.6278C104.864 97.2754 104.287 97.7474 104.647 98.9151C105.055 100.238 105.637 100.925 106.587 101.423C108.639 102.498 109.153 100.785 110.888 100.143" stroke="white"/>
<path d="M104.541 80.8661C104.163 81.8009 107.96 85.571 108.35 86.0379" stroke="white"/>
<path d="M118.505 74.754C117.418 74.9399 111.175 79.9756 112.475 81.7542C113.703 83.4338 116.284 82.9484 117.747 84.1834C120.362 86.3908 117.59 87.907 117.236 90.2693" stroke="white"/>
<path d="M155.001 63C153.288 64.7762 151.874 68.4053 151.757 71.5151C151.607 75.4581 153.501 75.6557 155.318 76.6347" stroke="white"/>
<path d="M168.012 71.4629C166.369 71.9666 160.485 73.5307 160.396 76.7914C160.327 79.2961 164.551 76.5483 165.156 76.1645" stroke="white"/>
<path d="M175.629 76.6347C174.047 74.8778 171.614 76.5572 170.322 78.3325C167.718 81.9099 171.799 81.0506 173.09 79.7691C174.241 78.6259 175.185 77.1657 175.875 75.3809C176.39 74.0495 176.688 69.4355 176.757 70.9666C176.911 74.3923 177.649 76.8286 178.485 79.9258" stroke="white"/>
<path d="M181.976 80.396C182.531 79.5854 183.539 78.2973 183.915 77.1571C184.465 75.4904 182.991 76.8162 182.804 77.3922C181.512 81.3808 184.59 81.6369 186.101 82.2766" stroke="white"/>
<path d="M188.005 106.725C184.814 108.059 180.157 110.019 178.361 114.535C176.628 118.897 181.115 119.065 182.61 119.419" stroke="white"/>
<path d="M191.179 112.837C190.28 116.268 189.85 119.547 189.592 123.181" stroke="white"/>
<path d="M194.352 118.009C194.535 121.924 196.185 122.425 197.949 119.733C199.233 117.773 200.706 119.827 202.286 118.949" stroke="white"/>
<path d="M204.825 110.486C205.187 113.566 205.365 116.563 205.46 119.68C205.535 122.152 206.706 119.468 207.452 118.766C207.935 118.312 210.674 116.257 210.978 118.192C211.334 120.452 208.175 121 207.364 121.3" stroke="white"/>
<path d="M49.3218 149.98C50.1535 149.23 50.0999 149.583 49.2513 150.502C47.0652 152.871 44.6533 154.738 42.4106 156.98C41.0385 158.351 40.1424 159.4 42.2695 159.853C44.1816 160.261 46.1314 160.477 48.0524 160.793" stroke="white"/>
<path d="M51.5433 149.51C53.2789 149.98 55.0024 150.405 56.762 150.633C57.9768 150.79 60.7257 150.196 61.8044 151.286C62.9096 152.402 58.1978 157.715 57.573 158.443" stroke="white"/>
<path d="M223.232 131.643C223.479 131.516 224.346 130.852 223.514 131.591C221.827 133.09 220.165 134.752 218.648 136.606C218.353 136.967 215.727 139.747 217.096 140.577C219.577 142.078 222.862 141.354 225.453 141.517" stroke="white"/>
<path d="M234.022 132.584C232.049 131.46 229.204 139.153 228.309 141.047" stroke="white"/>
<path d="M236.243 130.703C237.442 131.493 243.219 130.067 243.577 131.696C244.141 134.254 239.628 138.775 238.465 139.636" stroke="white"/>
<path d="M127.391 119.889C125.857 119.76 124.391 119.712 123.036 118.479C122.574 118.058 119.588 113.522 122.031 114.091C124.838 114.744 127.178 119.293 126.086 123.468C125.31 126.435 120.266 128.219 120.585 123.729C120.867 119.762 127.648 124.952 128.202 127.229C128.487 128.403 126.614 128.904 125.822 128.483C124.248 127.646 122.882 125.943 122.066 123.781C120.276 119.035 123.79 120.197 124.64 123.599C125.643 127.607 121.131 123.533 120.92 120.934C120.575 116.668 132.114 118.966 130 126.942C128.419 132.908 116.372 120.473 124.57 116.964C127.159 115.856 131.292 117.224 132.468 121.3C134.068 126.84 127.507 124.804 126.262 123.807C124.471 122.373 121.556 116.971 125.205 115.658C127.522 114.824 130.16 117.382 129.648 121.195C128.654 128.595 120.229 125.969 120.867 119.445C121.215 115.89 125.01 117.271 126.21 118.557C127.593 120.04 128.624 124.294 126.262 125.244C124.033 126.141 121.767 122.296 121.449 119.367C120.933 114.615 125.243 116.136 126.721 117.513C128.384 119.062 130.832 124.253 128.519 126.837C126.379 129.228 123.141 124.901 122.26 122.293C119.869 115.208 129.555 116.984 130.917 121.875C133.122 129.794 118.426 126.862 121.22 119.576C122.408 116.479 126.199 117.232 127.638 119.315C129.095 121.425 128.704 125.504 126.439 125.897C124.731 126.194 122.461 123.179 123.512 120.516C124.529 117.939 128.124 117.365 129.648 119.106C131.046 120.704 129.26 122.795 128.378 123.363C126.132 124.81 122.662 124.437 121.291 120.987C118.804 114.732 132.804 112.124 131.605 121.431C130.455 130.343 119.259 122.601 122.154 115.318C125.301 107.405 133.802 121.187 127.144 122.71C124.557 123.302 120.966 121.063 119.774 117.434C118.863 114.659 120.628 113.682 122.102 114.091C124.026 114.625 126.621 117.103 127.25 120.098C128.809 127.527 121.25 125.101 119.563 121.927C117.183 117.45 119.464 113.518 122.772 113.412C125.277 113.331 129.363 115.089 129.648 119.628C129.883 123.386 127.506 125.88 125.24 124.225C123.333 122.833 119.793 117.641 122.066 114.248C124.081 111.24 128.243 113.092 129.965 115.658C131.369 117.75 131.918 121.207 130.705 123.729C128.65 128.003 124.48 125.037 122.384 122.606C120.245 120.125 117.592 114.849 120.938 111.844C123.187 109.825 127.753 109.899 129.048 114.012C130.46 118.495 126.223 121.559 123.882 121.326C121.69 121.108 117.1 117.512 118.417 113.177C119.545 109.463 123.769 110.372 125.293 112.785C126.786 115.149 126.877 120.349 125.011 122.423C121.925 125.851 116.349 116.31 121.361 113.412C123.957 111.911 127.623 113.461 129.013 117.173C130.034 119.9 128.925 123.567 126.686 123.546C124.999 123.531 121.707 120.403 122.278 117.33C122.892 114.026 127.426 114.722 128.801 116.076C130.991 118.23 127.227 121.755 126.157 122.397C124.428 123.433 124.193 122.675 123.265 121.3" stroke="white"/>
<path d="M169.599 115.658C168.31 114.767 166.416 111.393 166.989 109.128C167.432 107.38 168.911 108.353 169.475 109.206C171.033 111.56 170.489 115.095 168.823 116.964C166.008 120.121 162.018 114.272 165.05 112.289C166.738 111.184 169.129 111.932 170.657 113.255C172.118 114.52 172.834 117.488 170.762 118.427C168.642 119.388 162.629 115.277 165.685 111.531C168.713 107.818 176.146 115.216 171.908 119.576C170.372 121.156 168.315 120.954 166.743 119.576C165.301 118.312 162.207 112.052 166.108 112.106C167.83 112.13 170.949 114.508 169.546 117.826C167.899 121.72 163.777 119.532 162.934 115.867C161.34 108.931 170.002 109.917 171.662 114.169C174.399 121.181 162.504 123.02 162.441 114.665C162.4 109.21 170.759 108.289 171.08 113.882C171.5 121.206 161.54 118.763 162.688 111.636C163.471 106.773 171.417 106.417 171.115 112.158C170.789 118.356 163.177 117.556 164.627 111.792C166.163 105.684 172.72 108.603 169.281 113.986C166.303 118.648 161.998 110.351 166.143 108.501C169.938 106.808 172.086 112.583 169.281 116.598C166.252 120.935 161.338 109.287 167.219 108.553C171.402 108.031 170.743 115.989 167.748 115.345C164.166 114.574 166.783 105.615 170.375 109.494C173.317 112.671 168.915 115.012 167.025 114.091C163.378 112.315 166.408 107.772 168.788 110.878C171.075 113.864 167.26 116.341 166.707 111.583C166.382 108.777 173.697 110.641 170.216 115.214C167.954 118.186 164.621 114.201 166.073 110.303C167.776 105.73 173.108 112.193 169.211 115.867C167.303 117.666 163.122 114.531 165.332 111.322C166.421 109.741 168.562 109.789 169.863 110.565C171.786 111.711 171.992 115.656 169.775 116.624C168.189 117.317 166.552 115.141 166.989 112.68C167.481 109.917 169.924 110.333 171.203 111.087C175.908 113.86 172.614 122.7 168.294 119.106C166.78 117.846 164.651 114.984 165.174 112.001C165.808 108.376 169.305 109.385 170.322 111.871C171.181 113.973 170.357 116.142 168.894 116.86C167.178 117.701 166.743 116.457 165.791 115.188" stroke="white"/>
</svg>
